<svg xmlns="http://www.w3.org/2000/svg" version="1.1" xmlns:xlink="http://www.w3.org/1999/xlink" xmlns:svgjs="http://svgjs.dev/svgjs" width="1500" height="1500" viewBox="0 0 1500 1500"><rect width="1500" height="1500" fill="#ff5858"></rect><g transform="matrix(0.6666666666666666,0,0,0.6666666666666666,249.39393939393938,438.5856950067477)"><svg viewBox="0 0 396 247" data-background-color="#ff5858" preserveAspectRatio="xMidYMid meet" height="935" width="1500" xmlns="http://www.w3.org/2000/svg" xmlns:xlink="http://www.w3.org/1999/xlink"><g id="tight-bounds" transform="matrix(1,0,0,1,0.2400000000000091,-0.09999999999999432)"><svg viewBox="0 0 395.52 247.2" height="247.2" width="395.52"><g><svg></svg></g><g><svg viewBox="0 0 395.52 247.2" height="247.2" width="395.52"><g transform="matrix(1,0,0,1,75.54432,51.479363079986726)"><svg viewBox="0 0 244.43135999999998 144.24127384002654" height="144.24127384002654" width="244.43135999999998"><g><svg viewBox="0 0 244.43135999999998 144.24127384002654" height="144.24127384002654" width="244.43135999999998"><g><svg viewBox="0 0 244.43135999999998 144.24127384002654" height="144.24127384002654" width="244.43135999999998"><g><svg viewBox="0 0 244.43135999999998 144.24127384002654" height="144.24127384002654" width="244.43135999999998"><g id="textblocktransform"><svg viewBox="0 0 244.43135999999998 144.24127384002654" height="144.24127384002654" width="244.43135999999998" id="textblock"><g><svg viewBox="0 0 244.43135999999998 144.24127384002654" height="144.24127384002654" width="244.43135999999998"><g transform="matrix(1,0,0,1,0,0)"><svg width="244.43135999999998" viewBox="1.2 -42.97 73.55 43.41" height="144.24127384002654" data-palette-color="#ffffff"><path d="M12.38 0L6.49 0 1.2-36.62 5.74-36.62 8.59-15.84 9.59-7.18 9.77-7.18 10.62-15.87 13.16-36.62 17.72-36.62 12.38 0ZM30.1 0.44L30.1 0.44Q27.51 0.44 25.9-0.45 24.29-1.34 23.42-2.99 22.56-4.64 22.24-6.95 21.92-9.25 21.92-12.11L21.92-12.11 21.92-25.07Q21.92-28.52 22.58-31.23 23.24-33.94 25.01-35.5 26.78-37.06 30.1-37.06L30.1-37.06Q32.59-37.06 34.18-36.17 35.76-35.28 36.64-33.65 37.52-32.03 37.85-29.85 38.18-27.66 38.18-25.07L38.18-25.07 38.18-12.11Q38.18-9.3 37.89-7.01 37.6-4.71 36.75-3.04 35.91-1.37 34.31-0.46 32.71 0.44 30.1 0.44ZM30.1-3.74L30.1-3.74Q31.42-3.74 32.07-4.61 32.71-5.49 32.93-7.07 33.15-8.64 33.15-10.72L33.15-10.72 33.15-26.07Q33.15-28.13 32.93-29.65 32.71-31.18 32.05-32.03 31.39-32.89 30.1-32.89L30.1-32.89Q28.73-32.89 28.05-32.03 27.37-31.18 27.16-29.65 26.95-28.13 26.95-26.07L26.95-26.07 26.95-10.72Q26.95-8.64 27.16-7.07 27.37-5.49 28.05-4.61 28.73-3.74 30.1-3.74ZM54.61 0.22L51.17 0.22Q48.82 0.22 47.63-0.34 46.43-0.9 46.02-2.15 45.6-3.39 45.6-5.44L45.6-5.44 45.6-32.62 42.26-32.62 42.26-36.33 45.6-36.33 45.6-42.97 50.61-42.97 50.61-36.33 54.56-36.33 54.56-32.62 50.61-32.62 50.61-5.88Q50.61-4.96 50.85-4.5 51.09-4.05 51.95-3.91 52.8-3.76 54.61-3.76L54.61-3.76 54.61 0.22ZM66.84 0.44L66.84 0.44Q64.2 0.44 62.6-0.48 61-1.39 60.17-3.08 59.34-4.76 59.06-7.12 58.78-9.47 58.78-12.33L58.78-12.33 58.78-25.27Q58.78-27.86 59.15-30.02 59.51-32.18 60.42-33.75 61.32-35.33 62.93-36.19 64.54-37.06 67.03-37.06L67.03-37.06Q69.55-37.06 71.09-36.18 72.62-35.3 73.42-33.7 74.21-32.1 74.48-29.9 74.75-27.69 74.75-25.05L74.75-25.05 74.75-18.14 63.81-18.14 63.81-10.84Q63.81-7.37 64.29-5.55 64.76-3.74 66.89-3.74L66.89-3.74Q68.28-3.74 68.88-4.6 69.47-5.47 69.61-7.04 69.74-8.62 69.74-10.77L69.74-10.77 69.74-13.72 74.65-13.72 74.65-12.16Q74.65-9.3 74.42-6.98 74.19-4.66 73.43-3 72.67-1.34 71.1-0.45 69.52 0.44 66.84 0.44ZM63.79-26.03L63.79-21.53 69.74-21.53 69.74-26.2Q69.74-28.39 69.6-29.9 69.45-31.4 68.89-32.17 68.33-32.93 67.03-32.93L67.03-32.93Q65.59-32.93 64.9-32.06 64.2-31.18 63.99-29.63 63.79-28.08 63.79-26.03L63.79-26.03Z" opacity="1" transform="matrix(1,0,0,1,0,0)" fill="#ffffff" class="wordmark-text-0" data-fill-palette-color="primary" id="text-0"></path></svg></g></svg></g></svg></g></svg></g></svg></g></svg></g></svg></g><path d="M253.924 45.479L253.924 1.951 10.625 1.951 10.625 245.249 253.924 245.249 253.924 201.721 240.916 201.721 240.916 232.241 23.633 232.241 23.633 14.959 240.916 14.959 240.916 45.479Z" fill="#ffffff" stroke="transparent" data-fill-palette-color="tertiary"></path></svg></g><defs></defs></svg><rect width="395.52" height="247.2" fill="none" stroke="none" visibility="hidden"></rect></g></svg></g></svg>